<svg xmlns="http://www.w3.org/2000/svg" version="1.1" xmlns:xlink="http://www.w3.org/1999/xlink" xmlns:svgjs="http://svgjs.dev/svgjs" width="64" height="59"><svg width="64" height="59" viewBox="0 0 64 59" fill="none" xmlns="http://www.w3.org/2000/svg">
<g id="SvgjsG1102">
<path id="SvgjsPath1101" fill-rule="evenodd" clip-rule="evenodd" d="M40.2897 0.178273L40.468 0H42.6072L42.7855 0.178273H44.7465L44.9248 0.356546H45.9944L46.1727 0.534819H46.7075L46.8858 0.713092H47.5989L47.7772 0.891365H48.1337L48.312 1.06964H48.8468L49.0251 1.24791H49.3816L49.5599 1.42618H49.9164L50.0947 1.60446H50.273L50.4513 1.78273H50.6295L50.8078 1.961H51.1643L51.3426 2.13928H51.5209L51.6992 2.31755H51.8774L52.0557 2.49582H52.234L52.4123 2.67409H52.5905L52.7688 2.85237H52.9471L53.3036 3.20891H53.4819L53.6602 3.38719H53.8384L54.195 3.74373H54.3733L54.5515 3.92201H54.7298L55.4429 4.6351H55.6212L56.156 5.16992H56.3343L59.3649 8.20056V8.37883L59.8997 8.91365V9.09192L60.6128 9.80501V10.1616L60.9694 10.5181V10.6964L61.3259 11.0529V11.2312L61.5042 11.4095V11.5877L61.6824 11.766V11.9443L61.8607 12.1226V12.3008L62.039 12.4791V12.6574L62.2173 12.8357V13.1922L62.3955 13.3705V13.5487L62.5738 13.727V14.0836L62.7521 14.2618V14.6184L62.9304 14.7967V14.9749L63.1086 15.1532V15.688L63.2869 15.8663V16.4011L63.4652 16.5794V17.2925L63.6435 17.4708V18.1838L63.8217 18.3621V19.7883L64 19.9666V24.7799L63.8217 24.9582V26.5627L63.6435 26.7409V27.6323L63.4652 27.8106V29.0585L63.2869 29.2368V29.5933L63.1086 29.7716V30.4847L62.9304 30.663V31.0195L62.7521 31.1978V31.7326L62.5738 31.9109V32.2674L62.3955 32.4457V32.9805L62.2173 33.1588V33.337L62.039 33.5153V33.8719L61.6824 34.2284V34.585L61.5042 34.7632V35.1198L61.3259 35.298V35.4763L61.1476 35.6546V35.8329L60.9694 36.0111V36.1894L60.7911 36.3677V36.546L60.6128 36.7242V36.9025L60.4345 37.0808V37.2591L60.2563 37.4373V37.6156L60.078 37.7939V37.9721L59.8997 38.1504V38.3287L59.7214 38.507V38.6852L59.1866 39.2201V39.3983L59.0084 39.5766V39.7549L58.8301 39.9331V40.1114L58.2953 40.6462V40.8245L57.7604 41.3593V41.5376L57.4039 41.8941V42.0724L56.8691 42.6072V42.7855L55.6212 44.0334H55.4429L55.2646 44.2117H55.0863L54.9081 44.39H54.7298L54.5515 44.5682H54.3733L54.195 44.7465H51.8774L51.6992 44.5682H51.5209L51.3426 44.39H51.1643L50.9861 44.2117H50.8078L50.4513 43.8552H50.273L49.7382 43.3203V43.1421L49.3816 42.7855V42.6072L49.2033 42.429V42.0724L49.0251 41.8941V39.7549L49.2033 39.5766V39.2201L49.3816 39.0418V38.8635L49.5599 38.6852V38.507L49.7382 38.3287V38.1504L50.4513 37.4373V37.2591L50.8078 36.9025V36.7242L51.3426 36.1894V36.0111L51.5209 35.8329V35.6546L51.8774 35.298V35.1198L52.234 34.7632V34.585L52.4123 34.4067V34.2284L52.5905 34.0501V33.8719L52.9471 33.5153V33.337L53.1253 33.1588V32.9805L53.3036 32.8022V32.624L53.4819 32.4457V32.2674L53.6602 32.0891V31.7326L53.8384 31.5543V31.376L54.0167 31.1978V30.8412L54.195 30.663V30.4847L54.3733 30.3064V29.9499L54.5515 29.7716V29.415L54.7298 29.2368V28.8802L54.9081 28.702V28.3454L55.0863 28.1671V27.454L55.2646 27.2758V26.5627L55.4429 26.3844V25.493L55.6212 25.3148V23.3538L55.7994 23.1755V21.7493L55.6212 21.571V19.7883L55.4429 19.61V19.0752L55.2646 18.8969V18.3621L55.0863 18.1838V17.649L54.9081 17.4708V17.2925L54.7298 17.1142V16.7577L54.5515 16.5794V16.4011L54.3733 16.2228V16.0446L54.195 15.8663V15.688L54.0167 15.5097V15.3315L53.8384 15.1532V14.9749L53.4819 14.6184V14.4401L53.3036 14.2618V14.0836L52.4123 13.1922V13.0139L51.6992 12.3008H51.5209V12.1226L51.3426 11.9443H51.1643L50.273 11.0529H50.0947L49.7382 10.6964H49.5599L49.3816 10.5181H49.2033L48.8468 10.1616H48.6685L48.4902 9.98329H48.312L48.1337 9.80501H47.7772L47.5989 9.62674H47.4206L47.2423 9.44847H46.8858L46.7075 9.2702H46.351L46.1727 9.09192H45.6379L45.4596 8.91365H44.9248L44.7465 8.73538H43.8552L43.6769 8.5571H38.3287L38.1504 8.73538H36.7242L36.546 8.91365H35.8329L35.6546 9.09192H34.7632L34.585 9.2702H34.2284L34.0501 9.44847H33.337L33.1588 9.62674H32.8022L32.624 9.80501H32.2674L32.0891 9.98329H31.7326L31.5543 10.1616H31.1978L31.0195 10.3398H30.8412L30.663 10.5181H30.3064L30.1281 10.6964H29.9499L29.7716 10.8747H29.415L29.2368 11.0529H29.0585L28.8802 11.2312H28.702L28.5237 11.4095H28.3454L28.1671 11.5877H27.9889L27.8106 11.766H27.6323L27.454 11.9443H27.2758L27.0975 12.1226H26.9192L26.7409 12.3008H26.5627L26.3844 12.4791H26.2061L26.0279 12.6574H25.8496L25.493 13.0139H25.3148L24.9582 13.3705H24.7799L24.6017 13.5487H24.4234L24.0669 13.9053H23.8886L23.3538 14.4401H23.1755L22.8189 14.7967H22.6407L22.1058 15.3315H21.9276L21.7493 15.5097H21.571L20.8579 16.2228H20.6797L19.9666 16.9359H19.7883L18.7187 18.0056H18.5404L14.9749 21.571V21.7493L13.9053 22.8189V22.9972L13.3705 23.532V23.7103L13.0139 24.0669V24.2451L12.6574 24.6017V24.7799L12.3008 25.1365V25.3148L11.9443 25.6713V25.8496L11.766 26.0279V26.2061L11.4095 26.5627V26.7409L11.2312 26.9192V27.2758L10.8747 27.6323V27.8106L10.6964 27.9889V28.1671L10.5181 28.3454V28.5237L10.3398 28.702V28.8802L10.1616 29.0585V29.415L9.98329 29.5933V29.7716L9.80501 29.9499V30.1281L9.62674 30.3064V30.663L9.44847 30.8412V31.1978L9.2702 31.376V31.7326L9.09192 31.9109V32.2674L8.91365 32.4457V32.9805L8.73538 33.1588V33.5153L8.5571 33.6936V34.4067L8.37883 34.585V35.298L8.20056 35.4763V36.546L8.02228 36.7242V38.6852L8.20056 38.8635V39.9331L8.37883 40.1114V40.6462L8.5571 40.8245V41.5376L8.73538 41.7159V41.8941L8.91365 42.0724V42.6072L9.2702 42.9638V43.1421L9.44847 43.3203V43.4986L9.62674 43.6769V43.8552L9.80501 44.0334V44.2117L10.3398 44.7465V44.9248L10.6964 45.2813V45.4596L10.8747 45.6379H11.0529V45.8162L12.8357 47.5989H13.0139L13.3705 47.9554H13.5487L14.0836 48.4902H14.2618L14.6184 48.8468H14.7967L14.9749 49.0251H15.1532L15.3315 49.2033H15.5097L15.688 49.3816H15.8663L16.0446 49.5599H16.5794L16.9359 49.9164H17.4708L17.649 50.0947H18.1838L18.3621 50.273H18.8969L19.0752 50.4513H23.3538L23.532 50.273H24.6017L24.7799 50.0947H25.493L25.6713 49.9164H26.2061L26.3844 49.7382H26.7409L26.9192 49.5599H27.454L27.6323 49.3816H27.8106L27.9889 49.2033H28.3454L28.5237 49.0251H28.702L28.8802 48.8468H29.0585L29.5933 48.312L28.5237 47.2423V47.0641L27.9889 46.5292V46.351L27.454 45.8162V45.6379L26.9192 45.1031V44.9248L26.7409 44.7465V44.5682L26.5627 44.39V44.2117L26.2061 43.8552V43.4986L26.0279 43.3203V43.1421L25.8496 42.9638V42.7855L25.6713 42.6072V42.2507L25.493 42.0724V41.7159L25.3148 41.5376V41.0028L25.1365 40.8245V39.9331L24.9582 39.7549V38.507L24.7799 38.3287V37.4373L24.9582 37.2591V36.0111L25.1365 35.8329V35.1198L25.3148 34.9415V34.585L25.493 34.4067V34.0501L25.6713 33.8719V33.6936L25.8496 33.5153V33.337L26.0279 33.1588V32.9805L26.2061 32.8022V32.624L26.5627 32.2674V32.0891L26.9192 31.7326V31.5543L27.2758 31.1978V31.0195H27.454L27.9889 30.4847V30.3064H28.1671L28.702 29.7716V29.5933H28.8802L29.2368 29.2368H29.415L29.7716 28.8802H29.9499L30.3064 28.5237H30.4847L30.663 28.3454H30.8412L31.0195 28.1671H31.1978L31.376 27.9889H31.5543L31.7326 27.8106H32.0891L32.2674 27.6323H32.624L32.8022 27.454H33.5153L33.6936 27.2758H37.4373L37.6156 27.454H38.1504L38.3287 27.6323H38.8635L39.0418 27.8106H39.2201L39.3983 27.9889H39.7549L39.9331 28.1671H40.1114L40.2897 28.3454H40.468L40.6462 28.5237H40.8245L41.1811 28.8802H41.3593L41.8941 29.415H42.0724L43.4986 30.8412V31.0195L44.0334 31.5543V31.7326L44.39 32.0891V32.2674L44.5682 32.4457V32.624L44.7465 32.8022V32.9805L44.9248 33.1588V33.337L45.1031 33.5153V33.6936L45.2813 33.8719V34.2284L45.4596 34.4067V34.585L45.6379 34.7632V35.1198L45.8162 35.298V36.0111L45.9944 36.1894V37.0808L46.1727 37.2591V39.7549L45.9944 39.9331V41.0028L45.8162 41.1811V41.7159L45.6379 41.8941V42.2507L45.4596 42.429V42.7855L45.2813 42.9638V43.1421L45.1031 43.3203V43.6769L44.9248 43.8552V44.0334L44.7465 44.2117V44.39L44.5682 44.5682V44.7465L44.39 44.9248V45.1031L44.2117 45.2813V45.4596L44.0334 45.6379V45.8162L43.8552 45.9944V46.1727L43.4986 46.5292V46.7075L43.1421 47.0641V47.2423L42.9638 47.4206V47.5989L42.7855 47.7772V47.9554L42.6072 48.1337V48.312L43.4986 49.2033H43.6769L44.0334 49.5599H44.2117L44.9248 50.273H45.1031L45.8162 50.9861H45.9944L46.1727 51.1643H46.351V51.3426L46.8858 51.8774H47.0641V52.0557L47.4206 52.4123V52.5905L47.7772 52.9471V53.1253L47.9554 53.3036V53.6602L48.1337 53.8384V54.5515L48.312 54.7298V54.9081L48.1337 55.0863V55.9777L47.9554 56.156V56.3343L47.7772 56.5125V56.6908L47.4206 57.0474V57.2256L47.2423 57.4039V57.5822H47.0641L46.351 58.2953H46.1727L45.9944 58.4735H45.8162L45.6379 58.6518H45.2813L45.1031 58.8301H42.9638L42.7855 58.6518H42.429L42.2507 58.4735H42.0724L41.7159 58.117H41.5376L41.1811 57.7604H41.0028L40.468 57.2256H40.2897L39.9331 56.8691H39.7549L39.2201 56.3343H39.0418L38.507 55.7994H38.3287L37.7939 55.2646H37.6156L37.0808 54.7298H36.9025L36.546 54.3733L36.3677 54.5515H36.0111L35.6546 54.9081H35.4763L35.298 55.0863H35.1198L34.9415 55.2646H34.7632L34.585 55.4429H34.4067L34.2284 55.6212H34.0501L33.8719 55.7994H33.6936L33.5153 55.9777H33.337L33.1588 56.156H32.9805L32.8022 56.3343H32.624L32.4457 56.5125H32.2674L32.0891 56.6908H31.7326L31.5543 56.8691H31.376L31.1978 57.0474H30.8412L30.663 57.2256H30.3064L30.1281 57.4039H29.7716L29.5933 57.5822H29.2368L29.0585 57.7604H28.702L28.5237 57.9387H27.9889L27.8106 58.117H27.2758L27.0975 58.2953H26.2061L26.0279 58.4735H25.493L25.3148 58.6518H24.0669L23.8886 58.8301H18.7187L18.5404 58.6518H17.2925L17.1142 58.4735H16.5794L16.4011 58.2953H15.688L15.5097 58.117H15.1532L14.9749 57.9387H14.4401L14.2618 57.7604H14.0836L13.9053 57.5822H13.5487L13.3705 57.4039H13.0139L12.8357 57.2256H12.6574L12.4791 57.0474H12.3008L12.1226 56.8691H11.9443L11.766 56.6908H11.5877L11.4095 56.5125H11.2312L11.0529 56.3343H10.8747L10.6964 56.156H10.5181L10.3398 55.9777H10.1616L9.80501 55.6212H9.62674L9.09192 55.0863H8.73538V54.9081L8.5571 54.7298H8.37883L7.84401 54.195H7.66574L6.77437 53.3036H6.5961L6.23955 52.9471V52.7688L6.06128 52.5905H5.88301L4.81337 51.5209V51.3426L3.92201 50.4513V50.273L3.56546 49.9164V49.7382L3.03064 49.2033V49.0251L2.67409 48.6685V48.4902L2.49582 48.312V48.1337L2.31755 47.9554V47.7772L2.13928 47.5989V47.4206L1.961 47.2423V47.0641L1.78273 46.8858V46.7075L1.60446 46.5292V46.351L1.42618 46.1727V45.9944L1.24791 45.8162V45.4596L1.06964 45.2813V44.9248L0.891365 44.7465V44.5682L0.713092 44.39V43.8552L0.534819 43.6769V43.1421L0.356546 42.9638V42.2507L0.178273 42.0724V41.0028L0 40.8245V34.9415L0.178273 34.7632V33.337L0.356546 33.1588V32.2674L0.534819 32.0891V31.376L0.713092 31.1978V30.8412L0.891365 30.663V30.1281L1.06964 29.9499V29.5933L1.24791 29.415V28.8802L1.42618 28.702V28.3454L1.60446 28.1671V27.8106L1.78273 27.6323V27.2758L1.961 27.0975V26.9192L2.13928 26.7409V26.5627L2.31755 26.3844V26.0279L2.49582 25.8496V25.6713L2.67409 25.493V25.3148L2.85237 25.1365V24.9582L3.03064 24.7799V24.4234L3.38719 24.0669V23.8886L3.56546 23.7103V23.532L3.74373 23.3538V23.1755L3.92201 22.9972V22.8189L4.10028 22.6407V22.4624L4.45682 22.1058V21.9276L4.6351 21.7493V21.571L4.99164 21.2145V21.0362L5.34819 20.6797V20.5014L5.70474 20.1448V19.9666L5.88301 19.7883V19.61L6.5961 18.8969V18.7187L6.95265 18.3621V18.1838L7.84401 17.2925V17.1142L8.73538 16.2228V16.0446L10.6964 14.0836V13.9053L12.4791 12.1226H12.6574L14.0836 10.6964H14.2618L15.3315 9.62674H15.5097L16.2228 8.91365H16.4011L16.7577 8.5571H16.9359L17.4708 8.02228H17.649L18.0056 7.66574H18.1838L18.7187 7.13092H18.8969L19.2535 6.77437H19.4318L19.61 6.5961H19.7883L20.1448 6.23955H20.3231L20.5014 6.06128H20.6797L21.0362 5.70474H21.2145L21.3928 5.52646H21.571L21.7493 5.34819H21.9276L22.2841 4.99164H22.4624L22.6407 4.81337H22.8189L22.9972 4.6351H23.1755L23.3538 4.45682H23.532L23.7103 4.27855H23.8886L24.0669 4.10028H24.2451L24.4234 3.92201H24.7799L24.9582 3.74373H25.1365L25.3148 3.56546H25.493L25.6713 3.38719H26.0279L26.2061 3.20891H26.3844L26.5627 3.03064H26.7409L26.9192 2.85237H27.454L27.6323 2.67409H27.8106L27.9889 2.49582H28.3454L28.5237 2.31755H28.702L28.8802 2.13928H29.2368L29.415 1.961H29.7716L29.9499 1.78273H30.4847L30.663 1.60446H31.1978L31.376 1.42618H31.9109L32.0891 1.24791H32.4457L32.624 1.06964H33.337L33.5153 0.891365H34.0501L34.2284 0.713092H35.1198L35.298 0.534819H36.1894L36.3677 0.356546H37.6156L37.7939 0.178273H40.2897ZM36.2785 35.3872H34.674C33.9609 35.4763 33.3192 36.4034 33.2479 37.2591C33.1587 38.3287 33.7826 42.2507 35.4762 42.5181C37.1698 42.7855 39.1308 36.3677 36.2785 35.3872Z" fill="#202020"></path>
</g>
</svg><style>@media (prefers-color-scheme: light) { :root { filter: none; } }
@media (prefers-color-scheme: dark) { :root { filter: none; } }
</style></svg>