<?xml version="1.0" standalone="no"?>
<!DOCTYPE svg PUBLIC "-//W3C//DTD SVG 20010904//EN"
 "http://www.w3.org/TR/2001/REC-SVG-20010904/DTD/svg10.dtd">
<svg version="1.0" xmlns="http://www.w3.org/2000/svg"
 width="700.000000pt" height="700.000000pt" viewBox="0 0 700.000000 700.000000"
 preserveAspectRatio="xMidYMid meet">
<metadata>
Created by potrace 1.14, written by Peter Selinger 2001-2017
</metadata>
<g transform="translate(0.000000,700.000000) scale(0.100000,-0.100000)"
fill="#000000" stroke="none">
<path d="M3235 6409 c-481 -45 -946 -209 -1343 -473 -173 -115 -294 -213 -446
-364 -733 -726 -1027 -1770 -781 -2771 238 -966 956 -1747 1900 -2068 490
-166 1056 -198 1555 -87 1125 251 1983 1109 2234 2234 38 170 56 323 63 530
27 814 -281 1586 -863 2162 -494 489 -1110 775 -1809 838 -128 12 -380 11
-510 -1z m575 -1487 c283 -67 512 -194 716 -397 204 -203 338 -449 400 -735
27 -122 27 -458 0 -580 -62 -286 -196 -531 -400 -736 -205 -204 -450 -338
-736 -400 -122 -27 -458 -27 -580 0 -286 62 -531 196 -735 401 -205 204 -339
449 -401 735 -27 122 -27 458 0 580 63 287 194 529 401 736 230 230 506 367
840 418 17 2 116 3 220 1 145 -3 210 -8 275 -23z"/>
</g>
</svg>
