<svg xmlns="http://www.w3.org/2000/svg" viewBox="0 0 100 100" preserveAspectRatio="xMidYMid" width="200" height="200" style="shape-rendering: auto; display: block; background: rgb(255, 255, 255, 0);" xmlns:xlink="http://www.w3.org/1999/xlink"><g><g transform="rotate(0 50 50)">
  <rect fill="#ffffff" height="14" width="1" ry="7" rx="0.5" y="18" x="49.5">
    <animate repeatCount="indefinite" begin="-0.48484848484848486s" dur="0.5s" keyTimes="0;1" values="1;0" attributeName="opacity"></animate>
  </rect>
</g><g transform="rotate(10.909090909090908 50 50)">
  <rect fill="#ffffff" height="14" width="1" ry="7" rx="0.5" y="18" x="49.5">
    <animate repeatCount="indefinite" begin="-0.4696969696969697s" dur="0.5s" keyTimes="0;1" values="1;0" attributeName="opacity"></animate>
  </rect>
</g><g transform="rotate(21.818181818181817 50 50)">
  <rect fill="#ffffff" height="14" width="1" ry="7" rx="0.5" y="18" x="49.5">
    <animate repeatCount="indefinite" begin="-0.45454545454545453s" dur="0.5s" keyTimes="0;1" values="1;0" attributeName="opacity"></animate>
  </rect>
</g><g transform="rotate(32.72727272727273 50 50)">
  <rect fill="#ffffff" height="14" width="1" ry="7" rx="0.5" y="18" x="49.5">
    <animate repeatCount="indefinite" begin="-0.4393939393939394s" dur="0.5s" keyTimes="0;1" values="1;0" attributeName="opacity"></animate>
  </rect>
</g><g transform="rotate(43.63636363636363 50 50)">
  <rect fill="#ffffff" height="14" width="1" ry="7" rx="0.5" y="18" x="49.5">
    <animate repeatCount="indefinite" begin="-0.42424242424242425s" dur="0.5s" keyTimes="0;1" values="1;0" attributeName="opacity"></animate>
  </rect>
</g><g transform="rotate(54.54545454545455 50 50)">
  <rect fill="#ffffff" height="14" width="1" ry="7" rx="0.5" y="18" x="49.5">
    <animate repeatCount="indefinite" begin="-0.4090909090909091s" dur="0.5s" keyTimes="0;1" values="1;0" attributeName="opacity"></animate>
  </rect>
</g><g transform="rotate(65.45454545454545 50 50)">
  <rect fill="#ffffff" height="14" width="1" ry="7" rx="0.5" y="18" x="49.5">
    <animate repeatCount="indefinite" begin="-0.3939393939393939s" dur="0.5s" keyTimes="0;1" values="1;0" attributeName="opacity"></animate>
  </rect>
</g><g transform="rotate(76.36363636363636 50 50)">
  <rect fill="#ffffff" height="14" width="1" ry="7" rx="0.5" y="18" x="49.5">
    <animate repeatCount="indefinite" begin="-0.3787878787878788s" dur="0.5s" keyTimes="0;1" values="1;0" attributeName="opacity"></animate>
  </rect>
</g><g transform="rotate(87.27272727272727 50 50)">
  <rect fill="#ffffff" height="14" width="1" ry="7" rx="0.5" y="18" x="49.5">
    <animate repeatCount="indefinite" begin="-0.36363636363636365s" dur="0.5s" keyTimes="0;1" values="1;0" attributeName="opacity"></animate>
  </rect>
</g><g transform="rotate(98.18181818181819 50 50)">
  <rect fill="#ffffff" height="14" width="1" ry="7" rx="0.5" y="18" x="49.5">
    <animate repeatCount="indefinite" begin="-0.3484848484848485s" dur="0.5s" keyTimes="0;1" values="1;0" attributeName="opacity"></animate>
  </rect>
</g><g transform="rotate(109.0909090909091 50 50)">
  <rect fill="#ffffff" height="14" width="1" ry="7" rx="0.5" y="18" x="49.5">
    <animate repeatCount="indefinite" begin="-0.3333333333333333s" dur="0.5s" keyTimes="0;1" values="1;0" attributeName="opacity"></animate>
  </rect>
</g><g transform="rotate(120 50 50)">
  <rect fill="#ffffff" height="14" width="1" ry="7" rx="0.5" y="18" x="49.5">
    <animate repeatCount="indefinite" begin="-0.3181818181818182s" dur="0.5s" keyTimes="0;1" values="1;0" attributeName="opacity"></animate>
  </rect>
</g><g transform="rotate(130.9090909090909 50 50)">
  <rect fill="#ffffff" height="14" width="1" ry="7" rx="0.5" y="18" x="49.5">
    <animate repeatCount="indefinite" begin="-0.30303030303030304s" dur="0.5s" keyTimes="0;1" values="1;0" attributeName="opacity"></animate>
  </rect>
</g><g transform="rotate(141.8181818181818 50 50)">
  <rect fill="#ffffff" height="14" width="1" ry="7" rx="0.5" y="18" x="49.5">
    <animate repeatCount="indefinite" begin="-0.2878787878787879s" dur="0.5s" keyTimes="0;1" values="1;0" attributeName="opacity"></animate>
  </rect>
</g><g transform="rotate(152.72727272727272 50 50)">
  <rect fill="#ffffff" height="14" width="1" ry="7" rx="0.5" y="18" x="49.5">
    <animate repeatCount="indefinite" begin="-0.2727272727272727s" dur="0.5s" keyTimes="0;1" values="1;0" attributeName="opacity"></animate>
  </rect>
</g><g transform="rotate(163.63636363636363 50 50)">
  <rect fill="#ffffff" height="14" width="1" ry="7" rx="0.5" y="18" x="49.5">
    <animate repeatCount="indefinite" begin="-0.25757575757575757s" dur="0.5s" keyTimes="0;1" values="1;0" attributeName="opacity"></animate>
  </rect>
</g><g transform="rotate(174.54545454545453 50 50)">
  <rect fill="#ffffff" height="14" width="1" ry="7" rx="0.5" y="18" x="49.5">
    <animate repeatCount="indefinite" begin="-0.24242424242424243s" dur="0.5s" keyTimes="0;1" values="1;0" attributeName="opacity"></animate>
  </rect>
</g><g transform="rotate(185.45454545454547 50 50)">
  <rect fill="#ffffff" height="14" width="1" ry="7" rx="0.5" y="18" x="49.5">
    <animate repeatCount="indefinite" begin="-0.22727272727272727s" dur="0.5s" keyTimes="0;1" values="1;0" attributeName="opacity"></animate>
  </rect>
</g><g transform="rotate(196.36363636363637 50 50)">
  <rect fill="#ffffff" height="14" width="1" ry="7" rx="0.5" y="18" x="49.5">
    <animate repeatCount="indefinite" begin="-0.21212121212121213s" dur="0.5s" keyTimes="0;1" values="1;0" attributeName="opacity"></animate>
  </rect>
</g><g transform="rotate(207.27272727272728 50 50)">
  <rect fill="#ffffff" height="14" width="1" ry="7" rx="0.5" y="18" x="49.5">
    <animate repeatCount="indefinite" begin="-0.19696969696969696s" dur="0.5s" keyTimes="0;1" values="1;0" attributeName="opacity"></animate>
  </rect>
</g><g transform="rotate(218.1818181818182 50 50)">
  <rect fill="#ffffff" height="14" width="1" ry="7" rx="0.5" y="18" x="49.5">
    <animate repeatCount="indefinite" begin="-0.18181818181818182s" dur="0.5s" keyTimes="0;1" values="1;0" attributeName="opacity"></animate>
  </rect>
</g><g transform="rotate(229.0909090909091 50 50)">
  <rect fill="#ffffff" height="14" width="1" ry="7" rx="0.5" y="18" x="49.5">
    <animate repeatCount="indefinite" begin="-0.16666666666666666s" dur="0.5s" keyTimes="0;1" values="1;0" attributeName="opacity"></animate>
  </rect>
</g><g transform="rotate(240 50 50)">
  <rect fill="#ffffff" height="14" width="1" ry="7" rx="0.5" y="18" x="49.5">
    <animate repeatCount="indefinite" begin="-0.15151515151515152s" dur="0.5s" keyTimes="0;1" values="1;0" attributeName="opacity"></animate>
  </rect>
</g><g transform="rotate(250.9090909090909 50 50)">
  <rect fill="#ffffff" height="14" width="1" ry="7" rx="0.5" y="18" x="49.5">
    <animate repeatCount="indefinite" begin="-0.13636363636363635s" dur="0.5s" keyTimes="0;1" values="1;0" attributeName="opacity"></animate>
  </rect>
</g><g transform="rotate(261.8181818181818 50 50)">
  <rect fill="#ffffff" height="14" width="1" ry="7" rx="0.5" y="18" x="49.5">
    <animate repeatCount="indefinite" begin="-0.12121212121212122s" dur="0.5s" keyTimes="0;1" values="1;0" attributeName="opacity"></animate>
  </rect>
</g><g transform="rotate(272.72727272727275 50 50)">
  <rect fill="#ffffff" height="14" width="1" ry="7" rx="0.5" y="18" x="49.5">
    <animate repeatCount="indefinite" begin="-0.10606060606060606s" dur="0.5s" keyTimes="0;1" values="1;0" attributeName="opacity"></animate>
  </rect>
</g><g transform="rotate(283.6363636363636 50 50)">
  <rect fill="#ffffff" height="14" width="1" ry="7" rx="0.5" y="18" x="49.5">
    <animate repeatCount="indefinite" begin="-0.09090909090909091s" dur="0.5s" keyTimes="0;1" values="1;0" attributeName="opacity"></animate>
  </rect>
</g><g transform="rotate(294.54545454545456 50 50)">
  <rect fill="#ffffff" height="14" width="1" ry="7" rx="0.5" y="18" x="49.5">
    <animate repeatCount="indefinite" begin="-0.07575757575757576s" dur="0.5s" keyTimes="0;1" values="1;0" attributeName="opacity"></animate>
  </rect>
</g><g transform="rotate(305.45454545454544 50 50)">
  <rect fill="#ffffff" height="14" width="1" ry="7" rx="0.5" y="18" x="49.5">
    <animate repeatCount="indefinite" begin="-0.06060606060606061s" dur="0.5s" keyTimes="0;1" values="1;0" attributeName="opacity"></animate>
  </rect>
</g><g transform="rotate(316.3636363636364 50 50)">
  <rect fill="#ffffff" height="14" width="1" ry="7" rx="0.5" y="18" x="49.5">
    <animate repeatCount="indefinite" begin="-0.045454545454545456s" dur="0.5s" keyTimes="0;1" values="1;0" attributeName="opacity"></animate>
  </rect>
</g><g transform="rotate(327.27272727272725 50 50)">
  <rect fill="#ffffff" height="14" width="1" ry="7" rx="0.5" y="18" x="49.5">
    <animate repeatCount="indefinite" begin="-0.030303030303030304s" dur="0.5s" keyTimes="0;1" values="1;0" attributeName="opacity"></animate>
  </rect>
</g><g transform="rotate(338.1818181818182 50 50)">
  <rect fill="#ffffff" height="14" width="1" ry="7" rx="0.5" y="18" x="49.5">
    <animate repeatCount="indefinite" begin="-0.015151515151515152s" dur="0.5s" keyTimes="0;1" values="1;0" attributeName="opacity"></animate>
  </rect>
</g><g transform="rotate(349.09090909090907 50 50)">
  <rect fill="#ffffff" height="14" width="1" ry="7" rx="0.5" y="18" x="49.5">
    <animate repeatCount="indefinite" begin="0s" dur="0.5s" keyTimes="0;1" values="1;0" attributeName="opacity"></animate>
  </rect>
</g><g></g></g><!-- [ldio] generated by https://loading.io --></svg>